<svg width="1200" height="630" viewBox="0 0 1200 630" fill="none" xmlns="http://www.w3.org/2000/svg">
  <!-- Background -->
  <rect width="1200" height="630" fill="#09090b"/>

  <!-- Grid pattern - simplified -->
  <g opacity="0.04">
    <line x1="0" y1="60" x2="1200" y2="60" stroke="white" stroke-width="1"/>
    <line x1="0" y1="120" x2="1200" y2="120" stroke="white" stroke-width="1"/>
    <line x1="0" y1="180" x2="1200" y2="180" stroke="white" stroke-width="1"/>
    <line x1="0" y1="240" x2="1200" y2="240" stroke="white" stroke-width="1"/>
    <line x1="0" y1="300" x2="1200" y2="300" stroke="white" stroke-width="1"/>
    <line x1="0" y1="360" x2="1200" y2="360" stroke="white" stroke-width="1"/>
    <line x1="0" y1="420" x2="1200" y2="420" stroke="white" stroke-width="1"/>
    <line x1="0" y1="480" x2="1200" y2="480" stroke="white" stroke-width="1"/>
    <line x1="0" y1="540" x2="1200" y2="540" stroke="white" stroke-width="1"/>
    <line x1="60" y1="0" x2="60" y2="630" stroke="white" stroke-width="1"/>
    <line x1="120" y1="0" x2="120" y2="630" stroke="white" stroke-width="1"/>
    <line x1="180" y1="0" x2="180" y2="630" stroke="white" stroke-width="1"/>
    <line x1="240" y1="0" x2="240" y2="630" stroke="white" stroke-width="1"/>
    <line x1="300" y1="0" x2="300" y2="630" stroke="white" stroke-width="1"/>
    <line x1="360" y1="0" x2="360" y2="630" stroke="white" stroke-width="1"/>
    <line x1="420" y1="0" x2="420" y2="630" stroke="white" stroke-width="1"/>
    <line x1="480" y1="0" x2="480" y2="630" stroke="white" stroke-width="1"/>
    <line x1="540" y1="0" x2="540" y2="630" stroke="white" stroke-width="1"/>
    <line x1="600" y1="0" x2="600" y2="630" stroke="white" stroke-width="1"/>
    <line x1="660" y1="0" x2="660" y2="630" stroke="white" stroke-width="1"/>
    <line x1="720" y1="0" x2="720" y2="630" stroke="white" stroke-width="1"/>
    <line x1="780" y1="0" x2="780" y2="630" stroke="white" stroke-width="1"/>
    <line x1="840" y1="0" x2="840" y2="630" stroke="white" stroke-width="1"/>
    <line x1="900" y1="0" x2="900" y2="630" stroke="white" stroke-width="1"/>
    <line x1="960" y1="0" x2="960" y2="630" stroke="white" stroke-width="1"/>
    <line x1="1020" y1="0" x2="1020" y2="630" stroke="white" stroke-width="1"/>
    <line x1="1080" y1="0" x2="1080" y2="630" stroke="white" stroke-width="1"/>
    <line x1="1140" y1="0" x2="1140" y2="630" stroke="white" stroke-width="1"/>
  </g>

  <!-- Center glow - simplified ellipse layers -->
  <ellipse cx="600" cy="315" rx="500" ry="280" fill="#fb923c" opacity="0.08"/>
  <ellipse cx="600" cy="315" rx="350" ry="200" fill="#fb923c" opacity="0.06"/>
  <ellipse cx="600" cy="315" rx="200" ry="120" fill="#fb923c" opacity="0.04"/>

  <!-- Lightning traces -->
  <line x1="100" y1="200" x2="350" y2="200" stroke="#fb923c" stroke-width="1.5" opacity="0.35"/>
  <line x1="850" y1="430" x2="1100" y2="430" stroke="#fb923c" stroke-width="1.5" opacity="0.25"/>
  <line x1="200" y1="150" x2="200" y2="350" stroke="#fb923c" stroke-width="1.5" opacity="0.2"/>
  <line x1="1000" y1="280" x2="1000" y2="480" stroke="#fb923c" stroke-width="1.5" opacity="0.2"/>

  <!-- Sponsor tag -->
  <rect x="462" y="155" width="276" height="36" rx="18" fill="none" stroke="#3f3f46" stroke-width="1"/>
  <text x="600" y="180" font-family="monospace" font-size="14" fill="#71717a" text-anchor="middle">Presented by</text>
  <text x="600" y="180" font-family="monospace" font-size="14" fill="#a1a1aa" text-anchor="middle">
    <tspan dx="75" font-weight="600">Hundreds United</tspan>
  </text>

  <!-- Main title -->
  <text x="600" y="295" font-family="Georgia, serif" font-size="92" font-weight="700" fill="#f4f4f5" text-anchor="middle">The</text>
  <text x="600" y="295" font-family="Georgia, serif" font-size="92" font-style="italic" fill="#fb923c" text-anchor="middle">
    <tspan dx="85">Trenches</tspan>
  </text>

  <!-- Tagline -->
  <text x="600" y="365" font-family="sans-serif" font-size="22" fill="#a1a1aa" text-anchor="middle">Practical engineering insights from the frontlines. Deep dives into</text>
  <text x="600" y="395" font-family="sans-serif" font-size="22" fill="#a1a1aa" text-anchor="middle">data architecture, infrastructure economics, and system design.</text>

  <!-- CTA buttons -->
  <rect x="430" y="445" width="160" height="48" rx="8" fill="#fb923c"/>
  <text x="510" y="476" font-family="sans-serif" font-size="15" font-weight="600" fill="#09090b" text-anchor="middle">Browse Articles</text>

  <rect x="610" y="445" width="140" height="48" rx="8" fill="none" stroke="#3f3f46" stroke-width="1.5"/>
  <text x="680" y="476" font-family="sans-serif" font-size="15" font-weight="500" fill="#d4d4d8" text-anchor="middle">Brand Book</text>

  <!-- Pulse dot -->
  <circle cx="600" cy="545" r="4" fill="#fb923c"/>
  <circle cx="600" cy="545" r="12" fill="none" stroke="#fb923c" stroke-width="1" opacity="0.4"/>
  <circle cx="600" cy="545" r="22" fill="none" stroke="#fb923c" stroke-width="1" opacity="0.2"/>

  <!-- Corner accents -->
  <circle cx="60" cy="60" r="3" fill="#fb923c" opacity="0.5"/>
  <circle cx="1140" cy="60" r="3" fill="#fb923c" opacity="0.5"/>
  <circle cx="60" cy="570" r="2" fill="#fb923c" opacity="0.3"/>
  <circle cx="1140" cy="570" r="2" fill="#fb923c" opacity="0.3"/>
</svg>
